# Blender 3.4.1
# www.blender.org
o Cylinder
v 0.000000 0.000000 -1.000000
v 0.000000 2.784433 -0.926678
v 0.642788 0.000000 -0.766044
v 0.595657 2.784433 -0.709877
v 0.984808 0.000000 -0.173648
v 0.912600 2.784433 -0.160916
v 0.866025 0.000000 0.500000
v 0.802527 2.784433 0.463339
v 0.342020 0.000000 0.939693
v 0.316943 2.784433 0.870793
v -0.342020 0.000000 0.939693
v -0.316943 2.784433 0.870793
v -0.866025 0.000000 0.500000
v -0.802527 2.784433 0.463339
v -0.984808 0.000000 -0.173648
v -0.912600 2.784433 -0.160916
v -0.642788 0.000000 -0.766044
v -0.595657 2.784433 -0.709877
v -0.000000 2.184433 -1.210000
v -0.000000 2.284433 -1.210000
v 0.777773 2.284433 -0.926914
v 0.777773 2.184433 -0.926914
v 1.191617 2.284433 -0.210114
v 1.191617 2.184433 -0.210114
v 1.047891 2.284433 0.605000
v 1.047891 2.184433 0.605000
v 0.413844 2.284433 1.137028
v 0.413844 2.184433 1.137028
v -0.413844 2.284433 1.137028
v -0.413844 2.184433 1.137028
v -1.047891 2.284433 0.605000
v -1.047891 2.184433 0.605000
v -1.191617 2.284433 -0.210114
v -1.191617 2.184433 -0.210114
v -0.777773 2.284433 -0.926914
v -0.777773 2.184433 -0.926914
v 0.777773 0.660000 -0.926914
v 0.777773 0.560000 -0.926914
v 1.191617 0.660000 -0.210114
v 1.191617 0.560000 -0.210114
v 1.047891 0.660000 0.605000
v 1.047891 0.560000 0.605000
v 0.413844 0.660000 1.137028
v 0.413844 0.560000 1.137028
v -0.413844 0.660000 1.137028
v -0.413844 0.560000 1.137028
v -1.047891 0.660000 0.605000
v -1.047891 0.560000 0.605000
v -1.191617 0.660000 -0.210114
v -1.191617 0.560000 -0.210114
v -0.777773 0.660000 -0.926914
v -0.777773 0.560000 -0.926914
v -0.000000 0.560000 -1.210000
v -0.000000 0.660000 -1.210000
v -0.000000 2.184433 -1.210000
v -0.000000 2.284433 -1.210000
v 0.777773 2.284433 -0.926914
v 0.777773 2.184433 -0.926914
v 1.191617 2.284433 -0.210114
v 1.191617 2.184433 -0.210114
v 1.047891 2.284433 0.605000
v 1.047891 2.184433 0.605000
v 0.413844 2.284433 1.137028
v 0.413844 2.184433 1.137028
v -0.413844 2.284433 1.137028
v -0.413844 2.184433 1.137028
v -1.047891 2.284433 0.605000
v -1.047891 2.184433 0.605000
v -1.191617 2.284433 -0.210114
v -1.191617 2.184433 -0.210114
v -0.777773 2.284433 -0.926914
v -0.777773 2.184433 -0.926914
v 0.777773 0.660000 -0.926914
v 0.777773 0.560000 -0.926914
v 1.191617 0.660000 -0.210114
v 1.191617 0.560000 -0.210114
v 1.047891 0.660000 0.605000
v 1.047891 0.560000 0.605000
v 0.413844 0.660000 1.137028
v 0.413844 0.560000 1.137028
v -0.413844 0.660000 1.137028
v -0.413844 0.560000 1.137028
v -1.047891 0.660000 0.605000
v -1.047891 0.560000 0.605000
v -1.191617 0.660000 -0.210114
v -1.191617 0.560000 -0.210114
v -0.777773 0.660000 -0.926914
v -0.777773 0.560000 -0.926914
v -0.000000 0.560000 -1.210000
v -0.000000 0.660000 -1.210000
v -0.000000 2.184433 -1.237197
v -0.000000 2.284433 -1.237197
v 0.795255 2.284433 -0.947748
v 0.795255 2.184433 -0.947748
v 1.218401 2.284433 -0.214837
v 1.218401 2.184433 -0.214837
v 1.071444 2.284433 0.618598
v 1.071444 2.184433 0.618598
v 0.423146 2.284433 1.162585
v 0.423146 2.184433 1.162585
v -0.423146 2.284433 1.162585
v -0.423146 2.184433 1.162585
v -1.071444 2.284433 0.618598
v -1.071444 2.184433 0.618598
v -1.218401 2.284433 -0.214837
v -1.218401 2.184433 -0.214837
v -0.795255 2.284433 -0.947748
v -0.795255 2.184433 -0.947748
v 0.795255 0.660000 -0.947748
v 0.795255 0.560000 -0.947748
v 1.218401 0.660000 -0.214837
v 1.218401 0.560000 -0.214837
v 1.071444 0.660000 0.618598
v 1.071444 0.560000 0.618598
v 0.423146 0.660000 1.162585
v 0.423146 0.560000 1.162585
v -0.423146 0.660000 1.162585
v -0.423146 0.560000 1.162585
v -1.071444 0.660000 0.618598
v -1.071444 0.560000 0.618598
v -1.218401 0.660000 -0.214837
v -1.218401 0.560000 -0.214837
v -0.795255 0.660000 -0.947748
v -0.795255 0.560000 -0.947748
v -0.000000 0.560000 -1.237197
v -0.000000 0.660000 -1.237197
v 0.642788 2.784433 -0.766044
v 0.000000 2.784433 -1.000000
v 0.984808 2.784433 -0.173648
v 0.866025 2.784433 0.500000
v 0.342020 2.784433 0.939693
v -0.342020 2.784433 0.939693
v -0.866025 2.784433 0.500000
v -0.984808 2.784433 -0.173648
v -0.642788 2.784433 -0.766044
v 0.595657 2.711134 -0.709877
v -0.000000 2.711134 -0.926678
v 0.912600 2.711134 -0.160916
v 0.802527 2.711134 0.463339
v 0.316943 2.711134 0.870793
v -0.316943 2.711134 0.870793
v -0.802527 2.711134 0.463339
v -0.912600 2.711134 -0.160916
v -0.595657 2.711134 -0.709877
v -0.000000 0.660000 -1.210000
v -0.000000 2.184433 -1.210000
v -0.777773 2.184433 -0.926914
v -1.191617 2.184433 -0.210114
v -1.047891 2.184433 0.605000
v -0.413844 2.184433 1.137028
v 0.413844 2.184433 1.137028
v 1.047891 2.184433 0.605000
v 1.191617 2.184433 -0.210114
v 0.777773 2.184433 -0.926914
v 0.777773 0.660000 -0.926914
v 1.191617 0.660000 -0.210114
v 1.047891 0.660000 0.605000
v 0.413844 0.660000 1.137028
v -0.413844 0.660000 1.137028
v -1.047891 0.660000 0.605000
v -1.191617 0.660000 -0.210114
v -0.777773 0.660000 -0.926914
vn 0.3181 0.3671 -0.8741
vn 0.8056 0.3671 -0.4651
vn 0.9160 0.3671 0.1615
vn 0.5979 0.3671 0.7126
vn -0.0000 0.3671 0.9302
vn -0.5979 0.3671 0.7126
vn -0.9160 0.3671 0.1615
vn -0.3420 -0.0000 0.9397
vn -0.8056 0.3671 -0.4651
vn -0.3181 0.3671 -0.8741
vn -0.0000 1.0000 -0.0000
vn 0.3226 -0.3324 -0.8863
vn 0.8168 -0.3324 -0.4716
vn 0.9288 -0.3324 0.1638
vn 0.6062 -0.3324 0.7225
vn -0.0000 -0.3324 0.9432
vn -0.6062 -0.3324 0.7225
vn -0.9288 -0.3324 0.1638
vn -0.8168 -0.3324 -0.4716
vn -0.3226 -0.3324 -0.8863
vn -0.0000 -1.0000 -0.0000
vn -0.3420 -0.0000 -0.9397
vn -0.8660 -0.0000 -0.5000
vn -0.9848 -0.0000 0.1736
vn -0.6428 -0.0000 0.7660
vn -0.0000 -0.0000 1.0000
vn 0.6428 -0.0000 0.7660
vn 0.9848 -0.0000 0.1736
vn 0.8660 -0.0000 -0.5000
vn 0.3420 -0.0000 -0.9397
vn 0.8660 -0.0000 0.5000
vn -0.0000 -0.0000 -1.0000
vn -0.8660 -0.0000 0.5000
vn 0.3420 -0.0000 0.9397
vn 0.6428 -0.0000 -0.7660
vn -0.9848 -0.0000 -0.1736
vn 0.9848 -0.0000 -0.1736
vn -0.6428 -0.0000 -0.7660
vt 0.963212 0.556403
vt 0.036788 0.556403
vt 0.543779 0.264066
vt 0.473228 0.491231
vt 0.860276 0.556403
vt 0.552771 0.319227
vt 0.561748 0.459012
vt 0.757340 0.556403
vt 0.524203 0.367264
vt 0.608848 0.377432
vt 0.654404 0.556403
vt 0.471441 0.385699
vt 0.592490 0.284663
vt 0.551468 0.556403
vt 0.419173 0.365906
vt 0.520328 0.224112
vt 0.448532 0.556403
vt 0.391857 0.317146
vt 0.426128 0.224112
vt 0.345596 0.556403
vt 0.402273 0.262236
vt 0.353966 0.284663
vt 0.242660 0.556403
vt 0.445548 0.226867
vt 0.337608 0.377432
vt 0.139724 0.556403
vt 0.501433 0.227590
vt 0.384709 0.459012
vt 0.000000 0.028196
vt 1.000000 0.028196
vt 0.961406 0.828421
vt 0.038594 0.828421
vt 1.000000 0.169472
vt 0.000000 0.169472
vt 0.858872 0.828421
vt 0.888889 0.169472
vt 0.888889 0.028196
vt 0.756337 0.828421
vt 0.777778 0.169472
vt 0.777778 0.028196
vt 0.653802 0.828421
vt 0.666667 0.169472
vt 0.666667 0.028196
vt 0.551267 0.828421
vt 0.555556 0.169472
vt 0.555556 0.028196
vt 0.448733 0.828421
vt 0.444445 0.169472
vt 0.444444 0.028196
vt 0.346198 0.828421
vt 0.333333 0.169472
vt 0.333333 0.028196
vt 0.243663 0.828421
vt 0.222222 0.169472
vt 0.222222 0.028196
vt 0.141128 0.828421
vt 0.111111 0.169472
vt 0.111111 0.028196
vt 0.888889 0.082046
vt 0.860276 0.610444
vt 0.888889 0.024103
vt 0.777778 0.082046
vt 0.757340 0.610444
vt 0.777778 0.024103
vt 0.666667 0.082046
vt 0.654404 0.610444
vt 0.666667 0.024103
vt 0.555556 0.082046
vt 0.555556 0.024103
vt 0.551468 0.610444
vt 0.444444 0.082046
vt 0.448532 0.610444
vt 0.444444 0.024103
vt 0.333333 0.082046
vt 0.345596 0.610444
vt 0.333333 0.024103
vt 0.222222 0.082046
vt 0.242660 0.610444
vt 0.222222 0.024103
vt 0.111111 0.082046
vt 0.139724 0.610444
vt 0.111111 0.024103
vt 0.963212 0.610444
vt 0.036788 0.610444
vt 0.000000 0.024103
vt 1.000000 0.024103
vt 0.000000 0.082046
vt 1.000000 0.082046
vt 0.000000 0.028196
vt 1.000000 0.028196
vt 0.000000 0.169472
vt 1.000000 0.169472
vt 0.888889 0.169472
vt 0.888889 0.028196
vt 0.777778 0.169472
vt 0.777778 0.028196
vt 0.666667 0.169472
vt 0.666667 0.028196
vt 0.555556 0.169472
vt 0.555556 0.028196
vt 0.444445 0.169472
vt 0.444444 0.028196
vt 0.333333 0.169472
vt 0.333333 0.028196
vt 0.222222 0.169472
vt 0.222222 0.028196
vt 0.111111 0.169472
vt 0.111111 0.028196
vt 0.888889 0.082046
vt 0.888889 0.024103
vt 0.777778 0.082046
vt 0.777778 0.024103
vt 0.666667 0.082046
vt 0.666667 0.024103
vt 0.555556 0.082046
vt 0.555556 0.024103
vt 0.444444 0.082046
vt 0.444444 0.024103
vt 0.333333 0.082046
vt 0.333333 0.024103
vt 0.222222 0.082046
vt 0.222222 0.024103
vt 0.111111 0.082046
vt 0.111111 0.024103
vt 1.000000 0.024103
vt 0.000000 0.024103
vt 1.000000 0.082046
vt 0.000000 0.082046
vt 0.000000 0.028196
vt 1.000000 0.028196
vt 0.000000 0.169472
vt 1.000000 0.169472
vt 0.888889 0.169472
vt 0.888889 0.028196
vt 0.777778 0.169472
vt 0.777778 0.028196
vt 0.666667 0.169472
vt 0.666667 0.028196
vt 0.555556 0.169472
vt 0.555556 0.028196
vt 0.444445 0.169472
vt 0.444444 0.028196
vt 0.333333 0.169472
vt 0.333333 0.028196
vt 0.222222 0.169472
vt 0.222222 0.028196
vt 0.111111 0.169472
vt 0.111111 0.028196
vt 0.888889 0.082046
vt 0.888889 0.024103
vt 0.777778 0.082046
vt 0.777778 0.024103
vt 0.666667 0.082046
vt 0.666667 0.024103
vt 0.555556 0.082046
vt 0.555556 0.024103
vt 0.444444 0.082046
vt 0.444444 0.024103
vt 0.333333 0.082046
vt 0.333333 0.024103
vt 0.222222 0.082046
vt 0.222222 0.024103
vt 0.111111 0.082046
vt 0.111111 0.024103
vt 1.000000 0.024103
vt 0.000000 0.024103
vt 1.000000 0.082046
vt 0.000000 0.082046
vt 0.858872 0.905322
vt 0.568752 0.467359
vt 0.961406 0.905322
vt 0.038594 0.905322
vt 0.473228 0.502127
vt 0.756337 0.905322
vt 0.619579 0.379324
vt 0.653802 0.905322
vt 0.601927 0.279214
vt 0.551267 0.905322
vt 0.524055 0.213872
vt 0.448733 0.905322
vt 0.422401 0.213872
vt 0.346198 0.905322
vt 0.344530 0.279214
vt 0.243663 0.905322
vt 0.326878 0.379324
vt 0.141128 0.905322
vt 0.377705 0.467359
vt 0.561748 0.459012
vt 0.473228 0.491231
vt 0.608848 0.377432
vt 0.592490 0.284663
vt 0.520328 0.224112
vt 0.426128 0.224112
vt 0.353966 0.284663
vt 0.337608 0.377432
vt 0.384709 0.459012
vt 0.000000 0.082046
vt 1.000000 0.082046
vt 0.494536 0.574637
vt 0.000000 0.028196
vt 0.496112 0.868762
vt 1.000000 0.028196
vt 0.585920 0.868762
vt 0.111111 0.028196
vt 0.676050 0.871934
vt 0.222222 0.028196
vt 0.767047 0.876840
vt 0.333333 0.028196
vt 0.444444 0.028196
vt 0.859128 0.881204
vt 0.951978 0.882940
vt 0.130054 0.882940
vt 0.555556 0.028196
vt 0.222904 0.881204
vt 0.666667 0.028196
vt 0.314985 0.876840
vt 0.777778 0.028196
vt 0.405982 0.871934
vt 0.888889 0.028196
vt 0.401996 0.577890
vt 0.888889 0.082046
vt 0.310454 0.582825
vt 0.777778 0.082046
vt 0.219944 0.587117
vt 0.666667 0.082046
vt 0.555556 0.082046
vt 0.951978 0.588800
vt 0.130054 0.588800
vt 0.862088 0.587117
vt 0.444444 0.082046
vt 0.771578 0.582825
vt 0.333333 0.082046
vt 0.680036 0.577890
vt 0.222222 0.082046
vt 0.111111 0.082046
vt 0.587495 0.574637
s 0
f 20/31/1 128/171/1 127/169/1 21/35/1
f 21/35/2 127/169/2 129/174/2 23/38/2
f 23/38/3 129/174/3 130/176/3 25/41/3
f 25/41/4 130/176/4 131/178/4 27/44/4
f 27/44/5 131/178/5 132/180/5 29/47/5
f 29/47/6 132/180/6 133/182/6 31/50/6
f 31/50/7 133/182/7 134/184/7 33/53/7
f 4/7/8 2/4/8 137/189/8 136/188/8
f 33/53/9 134/184/9 135/186/9 35/56/9
f 35/56/10 135/186/10 128/172/10 20/32/10
f 54/87/11 51/80/11 162/235/11 145/197/11
f 46/73/11 44/69/11 80/116/11 82/118/11
f 28/46/11 30/49/11 150/209/11 151/213/11
f 20/33/11 21/36/11 57/93/11 56/92/11
f 45/71/11 43/68/11 158/226/11 159/230/11
f 33/54/11 35/57/11 71/107/11 69/105/11
f 37/59/11 54/88/11 145/198/11 155/221/11
f 41/65/11 43/68/11 79/115/11 77/113/11
f 36/58/11 19/29/11 146/200/11 147/204/11
f 22/37/11 19/30/11 55/90/11 58/94/11
f 22/37/11 24/40/11 153/217/11 154/219/11
f 36/58/11 34/55/11 70/106/11 72/108/11
f 51/80/11 49/77/11 161/234/11 162/235/11
f 44/69/11 42/67/11 78/114/11 80/116/11
f 43/68/11 41/65/11 157/225/11 158/226/11
f 21/36/11 23/39/11 59/95/11 57/93/11
f 30/49/11 32/52/11 149/208/11 150/209/11
f 35/57/11 20/34/11 56/91/11 71/107/11
f 1/1/12 53/83/12 38/60/12 3/5/12
f 39/62/11 41/65/11 77/113/11 75/111/11
f 3/5/13 38/60/13 40/63/13 5/8/13
f 24/40/11 22/37/11 58/94/11 60/96/11
f 5/8/14 40/63/14 42/66/14 7/11/14
f 19/29/11 36/58/11 72/108/11 55/89/11
f 7/11/15 42/66/15 44/70/15 9/14/15
f 42/67/11 40/64/11 76/112/11 78/114/11
f 9/14/16 44/70/16 46/72/16 11/17/16
f 23/39/11 25/42/11 61/97/11 59/95/11
f 11/17/17 46/72/17 48/75/17 13/20/17
f 51/80/11 54/87/11 90/128/11 87/123/11
f 13/20/18 48/75/18 50/78/18 15/23/18
f 37/59/11 39/62/11 75/111/11 73/109/11
f 15/23/19 50/78/19 52/81/19 17/26/19
f 26/43/11 24/40/11 60/96/11 62/98/11
f 17/26/20 52/81/20 53/84/20 1/2/20
f 53/85/11 52/82/11 88/124/11 89/126/11
f 72/108/21 70/106/21 106/146/21 108/148/21
f 85/121/11 87/123/11 123/163/11 121/161/11
f 57/93/11 59/95/11 95/135/11 93/133/11
f 90/127/11 73/109/11 109/149/11 126/167/11
f 71/107/11 56/91/11 92/131/11 107/147/11
f 88/124/21 86/122/21 122/162/21 124/164/21
f 60/96/21 58/94/21 94/134/21 96/136/21
f 74/110/21 89/125/21 125/165/21 110/150/21
f 55/89/21 72/108/21 108/148/21 91/129/21
f 83/119/11 85/121/11 121/161/11 119/159/11
f 59/95/11 61/97/11 97/137/11 95/135/11
f 86/122/21 84/120/21 120/160/21 122/162/21
f 62/98/21 60/96/21 96/136/21 98/138/21
f 81/117/11 83/119/11 119/159/11 117/157/11
f 61/97/11 63/99/11 99/139/11 97/137/11
f 84/120/21 82/118/21 118/158/21 120/160/21
f 64/100/21 62/98/21 98/138/21 100/140/21
f 79/115/11 81/117/11 117/157/11 115/155/11
f 34/55/11 32/52/11 68/104/11 70/106/11
f 43/68/11 45/71/11 81/117/11 79/115/11
f 31/51/11 33/54/11 69/105/11 67/103/11
f 48/76/11 46/73/11 82/118/11 84/120/11
f 32/52/11 30/49/11 66/102/11 68/104/11
f 45/71/11 47/74/11 83/119/11 81/117/11
f 29/48/11 31/51/11 67/103/11 65/101/11
f 50/79/11 48/76/11 84/120/11 86/122/11
f 30/49/11 28/46/11 64/100/11 66/102/11
f 47/74/11 49/77/11 85/121/11 83/119/11
f 27/45/11 29/48/11 65/101/11 63/99/11
f 38/61/11 53/86/11 89/125/11 74/110/11
f 52/82/11 50/79/11 86/122/11 88/124/11
f 28/46/11 26/43/11 62/98/11 64/100/11
f 54/88/11 37/59/11 73/109/11 90/127/11
f 49/77/11 51/80/11 87/123/11 85/121/11
f 25/42/11 27/45/11 63/99/11 61/97/11
f 40/64/11 38/61/11 74/110/11 76/112/11
f 108/148/22 107/147/22 92/131/22 91/129/22
f 106/146/23 105/145/23 107/147/23 108/148/23
f 104/144/24 103/143/24 105/145/24 106/146/24
f 102/142/25 101/141/25 103/143/25 104/144/25
f 100/140/26 99/139/26 101/141/26 102/142/26
f 98/138/27 97/137/27 99/139/27 100/140/27
f 96/136/28 95/135/28 97/137/28 98/138/28
f 94/134/29 93/133/29 95/135/29 96/136/29
f 91/130/30 92/132/30 93/133/30 94/134/30
f 125/165/30 126/167/30 109/149/30 110/150/30
f 110/150/29 109/149/29 111/151/29 112/152/29
f 112/152/28 111/151/28 113/153/28 114/154/28
f 114/154/27 113/153/27 115/155/27 116/156/27
f 116/156/26 115/155/26 117/157/26 118/158/26
f 118/158/25 117/157/25 119/159/25 120/160/25
f 120/160/24 119/159/24 121/161/24 122/162/24
f 122/162/23 121/161/23 123/163/23 124/164/23
f 124/164/22 123/163/22 126/168/22 125/166/22
f 76/112/21 74/110/21 110/150/21 112/152/21
f 58/94/21 55/90/21 91/130/21 94/134/21
f 89/126/21 88/124/21 124/164/21 125/166/21
f 69/105/11 71/107/11 107/147/11 105/145/11
f 73/109/11 75/111/11 111/151/11 109/149/11
f 56/92/11 57/93/11 93/133/11 92/132/11
f 87/123/11 90/128/11 126/168/11 123/163/11
f 70/106/21 68/104/21 104/144/21 106/146/21
f 78/114/21 76/112/21 112/152/21 114/154/21
f 67/103/11 69/105/11 105/145/11 103/143/11
f 75/111/11 77/113/11 113/153/11 111/151/11
f 68/104/21 66/102/21 102/142/21 104/144/21
f 80/116/21 78/114/21 114/154/21 116/156/21
f 65/101/11 67/103/11 103/143/11 101/141/11
f 77/113/11 79/115/11 115/155/11 113/153/11
f 66/102/21 64/100/21 100/140/21 102/142/21
f 82/118/21 80/116/21 116/156/21 118/158/21
f 63/99/11 65/101/11 101/141/11 99/139/11
f 2/4/11 4/7/11 127/170/11 128/173/11
f 4/7/11 6/10/11 129/175/11 127/170/11
f 6/10/11 8/13/11 130/177/11 129/175/11
f 8/13/11 10/16/11 131/179/11 130/177/11
f 10/16/11 12/19/11 132/181/11 131/179/11
f 12/19/11 14/22/11 133/183/11 132/181/11
f 14/22/11 16/25/11 134/185/11 133/183/11
f 16/25/11 18/28/11 135/187/11 134/185/11
f 18/28/11 2/4/11 128/173/11 135/187/11
f 136/188/11 137/189/11 144/196/11 143/195/11 142/194/11 141/193/11 140/192/11 139/191/11 138/190/11
f 18/28/31 16/25/31 143/195/31 144/196/31
f 12/19/32 10/16/32 140/192/32 141/193/32
f 6/10/33 4/7/33 136/188/33 138/190/33
f 2/4/34 18/28/34 144/196/34 137/189/34
f 14/22/35 12/19/35 141/193/35 142/194/35
f 8/13/36 6/10/36 138/190/36 139/191/36
f 16/25/37 14/22/37 142/194/37 143/195/37
f 10/16/38 8/13/38 139/191/38 140/192/38
f 162/236/22 147/203/22 146/201/22 145/199/22
f 161/233/23 148/205/23 147/203/23 162/236/23
f 160/231/24 149/207/24 148/205/24 161/233/24
f 159/229/25 150/210/25 149/207/25 160/231/25
f 158/227/26 151/211/26 150/210/26 159/229/26
f 157/224/27 152/214/27 151/212/27 158/228/27
f 156/222/28 153/216/28 152/214/28 157/224/28
f 155/220/29 154/218/29 153/216/29 156/222/29
f 145/199/30 146/201/30 154/218/30 155/220/30
f 19/30/11 22/37/11 154/219/11 146/202/11
f 34/55/11 36/58/11 147/204/11 148/206/11
f 39/62/11 37/59/11 155/221/11 156/223/11
f 47/74/11 45/71/11 159/230/11 160/232/11
f 26/43/11 28/46/11 151/213/11 152/215/11
f 32/52/11 34/55/11 148/206/11 149/208/11
f 41/65/11 39/62/11 156/223/11 157/225/11
f 49/77/11 47/74/11 160/232/11 161/234/11
f 24/40/11 26/43/11 152/215/11 153/217/11
f 1/3/21 3/6/21 5/9/21 7/12/21 9/15/21 11/18/21 13/21/21 15/24/21 17/27/21
