# Blender 3.4.1
# www.blender.org
mtllib Car.mtl
o Cube
v 1.054515 1.565466 -1.029601
v 1.137837 -0.021203 -0.815164
v 1.067385 1.578886 1.021114
v 1.137837 0.000000 1.442744
v -1.054515 1.565466 -1.029601
v -1.137837 -0.021203 -0.815164
v -1.067385 1.578886 1.021114
v -1.137837 0.000000 1.442744
v 1.100000 -0.009514 -1.548210
v -1.100000 -0.009514 -1.548210
v 1.054515 0.934534 -1.570399
v -1.054515 0.934534 -1.570399
v 1.100000 0.000000 -2.600000
v -1.100000 0.000000 -2.600000
v 1.100000 0.600000 -2.600000
v -1.100000 0.600000 -2.600000
v -1.100000 0.000000 2.162744
v -0.972663 0.821114 1.778886
v 0.972663 0.821114 1.778886
v 1.100000 0.000000 2.162744
v -0.968000 0.000000 3.500000
v -0.784080 0.360000 3.500000
v 0.784080 0.360000 3.500000
v 0.968000 0.000000 3.500000
v 1.137837 0.462224 -0.923897
v -1.137837 0.462224 -0.923897
v 1.100000 0.480173 -1.443983
v -1.100000 0.480173 -1.443983
v 1.100000 0.300000 -2.700000
v -1.100000 0.300000 -2.700000
v -1.100000 0.261231 2.130666
v 1.100000 0.261231 2.130666
v -0.871200 0.130000 3.600000
v 0.871200 0.130000 3.600000
v 1.137837 0.334798 -0.826307
v 1.137837 0.277282 1.489672
v -1.137837 0.334798 -0.826307
v 1.100000 0.318938 -1.564201
v -1.100000 0.318938 -1.564201
v 1.100000 0.150000 -2.700000
v -1.100000 0.150000 -2.700000
v 1.137837 0.098602 -0.779912
v 0.968000 0.030000 3.550000
v -1.137837 0.277282 1.489672
v 1.137837 0.128567 1.442744
v -0.968000 0.030000 3.550000
v -1.100000 0.300000 -2.800000
v 1.100000 0.300000 -2.800000
v 1.100000 0.150000 -2.800000
v -1.100000 0.150000 -2.800000
v -1.091145 1.600000 -1.000000
v 1.091145 1.600000 -1.000000
v -1.100000 0.900000 -1.600000
v 1.100000 0.900000 -1.600000
v -1.054515 1.552508 -1.014483
v 1.054515 1.552508 -1.014483
v -1.054515 0.921577 -1.555281
v 1.054515 0.921577 -1.555281
v 1.091145 1.600000 1.000000
v -1.091145 1.600000 1.000000
v 1.000000 0.800000 1.800000
v -1.000000 0.800000 1.800000
v 1.083250 1.557238 1.009222
v -1.051520 1.557238 1.009222
v 0.988529 0.799466 1.766994
v -0.956798 0.799466 1.766994
v -1.137837 0.000000 0.000000
v 1.137837 1.600000 0.000000
v -1.137837 1.600000 0.000000
v 1.137837 0.000000 0.000000
v 1.137837 0.800000 0.000000
v -1.137837 0.800000 0.000000
v -1.137837 0.400000 0.000000
v 1.137837 0.400000 0.000000
v 1.045573 1.200000 1.400000
v -1.045573 1.200000 1.400000
v -1.068919 0.460000 1.772744
v 1.068919 0.460000 1.772744
v 1.020024 1.200000 1.400000
v -1.020024 1.200000 1.400000
v 1.035889 1.178352 1.388108
v -1.004159 1.178352 1.388108
v 1.022786 1.000000 1.600000
v -1.034459 0.420000 2.012744
v 1.034459 0.420000 2.012744
v 0.996344 1.010557 1.589443
v 1.012209 0.988909 1.577551
v -1.022786 1.000000 1.600000
v -0.996344 1.010557 1.589443
v -0.980478 0.988909 1.577551
v -1.068359 1.400000 1.200000
v -1.043705 1.389443 1.210557
v -1.027839 1.367795 1.198665
v 1.068359 1.400000 1.200000
v -1.103378 0.398078 1.612744
v 1.103378 0.398078 1.612744
v 1.043705 1.389443 1.210557
v 1.059570 1.367795 1.198665
v -1.137837 0.098602 -0.779912
v 1.100000 0.150247 -1.617289
v -1.100000 0.150247 -1.617289
v 1.100000 0.075000 -2.650000
v -1.100000 0.075000 -2.650000
v 0.968000 0.015000 3.525000
v -1.137837 0.128567 1.442744
v -0.968000 0.015000 3.525000
v 1.100000 0.087573 2.178933
v 1.137837 0.200000 0.000000
v -1.137837 0.200000 0.000000
v -1.100000 0.087573 2.178933
v -1.090000 0.070000 1.422744
v 1.090000 0.070000 1.422744
v -1.090000 -0.180687 1.513987
v 1.090000 -0.180687 1.513987
v -1.090000 -0.314075 1.745021
v 1.090000 -0.314075 1.745021
v -1.090000 -0.267750 2.007744
v 1.090000 -0.267750 2.007744
v -1.090000 -0.063388 2.179224
v 1.090000 -0.063388 2.179224
v -1.090000 0.203388 2.179224
v 1.090000 0.203388 2.179224
v -1.090000 0.407750 2.007744
v 1.090000 0.407750 2.007744
v -1.090000 0.454075 1.745021
v 1.090000 0.454075 1.745021
v -1.090000 0.320687 1.513987
v 1.090000 0.320687 1.513987
v 1.095572 1.250000 -1.300000
v -1.095572 1.250000 -1.300000
v -1.118919 0.571768 -1.196217
v 1.118919 0.571768 -1.196217
v 1.054515 1.250000 -1.300000
v -1.054515 1.250000 -1.300000
v 1.054515 1.237042 -1.284882
v -1.054515 1.237042 -1.284882
v -1.121718 0.150350 -1.622073
v 1.121718 0.150350 -1.622073
v -1.121718 -0.127400 -1.520980
v 1.121718 -0.127400 -1.520980
v -1.121718 -0.275188 -1.265004
v 1.121718 -0.275188 -1.265004
v -1.121718 -0.223862 -0.973919
v 1.121718 -0.223862 -0.973919
v -1.121718 0.002562 -0.783927
v 1.121718 0.002562 -0.783927
v -1.121718 0.298138 -0.783927
v 1.121718 0.298137 -0.783927
v -1.121718 0.524561 -0.973919
v 1.121718 0.524561 -0.973919
v -1.121718 0.575888 -1.265004
v 1.121718 0.575887 -1.265004
v -1.121718 0.428100 -1.520980
v 1.121718 0.428100 -1.520980
vn -0.0000 1.0000 -0.0000
vn -0.0000 0.9578 -0.2873
vn -0.0000 0.7593 0.6508
vn -0.0000 0.3162 -0.9487
vn -1.0000 -0.0000 -0.0000
vn -0.0000 0.3987 0.9171
vn 0.9244 0.3311 0.1894
vn -0.0000 0.9681 0.2506
vn -0.9945 -0.0389 0.0968
vn -0.9244 0.3311 0.1894
vn 0.7496 0.6387 0.1738
vn -0.0000 -0.4472 0.8944
vn -0.9997 0.0145 -0.0179
vn 1.0000 -0.0000 -0.0000
vn -0.0000 -0.5547 -0.8321
vn 0.9953 0.0119 0.0963
vn -0.7496 0.6387 0.1738
vn -0.0000 -0.0000 -1.0000
vn -0.0000 -1.0000 -0.0000
vn -0.0000 0.6508 -0.7593
vn -0.0000 -0.7593 -0.6508
vn -0.0000 0.7071 0.7071
vn -0.0000 0.4815 -0.8765
vn -0.0000 -0.4815 0.8765
vn 0.9997 0.0170 0.0151
vn -0.9989 0.0258 -0.0385
vn -0.9748 0.1208 0.1878
vn -0.8191 -0.3512 -0.4536
vn 0.9748 0.1208 0.1878
vn 0.8387 0.4339 0.3291
vn 0.9945 -0.0389 0.0968
vn 0.9989 0.0258 -0.0385
vn -0.9997 0.0170 0.0151
vn -0.9953 0.0119 0.0963
vn -0.0000 -0.8575 0.5145
vn -0.0000 -0.3420 -0.9397
vn -0.0000 -0.8660 -0.5000
vn -0.0000 -0.9848 0.1736
vn -0.0000 -0.6428 0.7660
vn -0.0000 -0.0000 1.0000
vn -0.0000 0.6428 0.7660
vn -0.0000 0.9848 0.1736
vn -0.0000 0.8660 -0.5000
vn -0.0000 0.3420 -0.9397
vn 0.9997 0.0145 -0.0179
vt 0.701517 0.924011
vt 0.627080 0.386660
vt 0.599810 0.183692
vt 0.701450 0.922458
vt 0.366294 0.388376
vt 0.312676 0.186404
vt 0.627080 0.386660
vt 0.458375 0.924011
vt 0.599810 0.183692
vt 0.455341 0.922458
vt 0.366294 0.388376
vt 0.312676 0.186404
vt 0.693031 0.185187
vt 0.693031 0.185187
vt 0.700318 0.851645
vt 0.695853 0.305950
vt 0.701517 0.851273
vt 0.457176 0.851645
vt 0.458375 0.851273
vt 0.695853 0.305950
vt 0.826785 0.186404
vt 0.706760 0.743535
vt 0.826785 0.186404
vt 0.453131 0.743535
vt 0.940074 0.933164
vt 0.706760 0.812706
vt 0.826785 0.263157
vt 0.793298 0.933164
vt 0.453131 0.812706
vt 0.826785 0.263157
vt 0.221114 0.186404
vt 0.466261 0.835097
vt 0.269929 0.291442
vt 0.690530 0.835097
vt 0.269929 0.291442
vt 0.221114 0.186404
vt 0.051058 0.186404
vt 0.466799 0.740434
vt 0.488002 0.664750
vt 0.814375 0.526194
vt 0.051058 0.232455
vt 0.668789 0.664750
vt 0.051058 0.232455
vt 0.918997 0.526194
vt 0.051058 0.186404
vt 0.689992 0.740434
vt 0.613638 0.245532
vt 0.613638 0.245532
vt 0.679776 0.247828
vt 0.679776 0.247828
vt 0.706760 0.778120
vt 0.940074 0.939836
vt 0.839502 0.224780
vt 0.453131 0.778120
vt 0.839502 0.224780
vt 0.793298 0.939836
vt 0.838284 0.224974
vt 0.225194 0.219821
vt 0.225194 0.219821
vt 0.477958 0.638234
vt 0.477958 0.755421
vt 0.038341 0.203034
vt 0.678833 0.638234
vt 0.038341 0.203034
vt 0.678833 0.755421
vt 0.601228 0.229232
vt 0.306708 0.221874
vt 0.601228 0.229232
vt 0.695064 0.227203
vt 0.695064 0.227203
vt 0.706760 0.760828
vt 0.839502 0.205592
vt 0.791825 0.941829
vt 0.453131 0.760828
vt 0.839502 0.205592
vt 0.940579 0.940055
vt 0.838284 0.205909
vt 0.595327 0.199017
vt 0.044699 0.190242
vt 0.689992 0.743893
vt 0.306708 0.221874
vt 0.312676 0.202850
vt 0.044699 0.190242
vt 0.466799 0.743893
vt 0.793298 0.946508
vt 0.812979 0.959706
vt 0.850994 0.224974
vt 0.940074 0.946508
vt 0.924213 0.959706
vt 0.852219 0.224780
vt 0.924213 0.942413
vt 0.852219 0.205592
vt 0.791378 0.949003
vt 0.812979 0.942413
vt 0.942129 0.948455
vt 0.850994 0.205909
vt 0.623316 0.391077
vt 0.793889 0.826418
vt 0.454152 0.927992
vt 0.705739 0.927992
vt 0.939483 0.826418
vt 0.623316 0.391077
vt 0.793298 0.866448
vt 0.453131 0.847292
vt 0.699617 0.301533
vt 0.940074 0.866448
vt 0.699617 0.301533
vt 0.706760 0.847292
vt 0.458375 0.922517
vt 0.625157 0.385002
vt 0.325716 0.933238
vt 0.701517 0.922517
vt 0.625157 0.385002
vt 0.070956 0.933238
vt 0.457176 0.850151
vt 0.693930 0.304293
vt 0.325716 0.819322
vt 0.700318 0.850151
vt 0.693930 0.304293
vt 0.070956 0.819322
vt 0.939483 0.692985
vt 0.704189 0.924892
vt 0.368979 0.391077
vt 0.793889 0.692985
vt 0.452602 0.924892
vt 0.368979 0.391077
vt 0.933402 0.639612
vt 0.693682 0.832663
vt 0.267244 0.288741
vt 0.799969 0.639612
vt 0.463110 0.832663
vt 0.267244 0.288741
vt 0.703279 0.919962
vt 0.367806 0.385607
vt 0.336286 0.788362
vt 0.457170 0.919962
vt 0.367806 0.385607
vt 0.090176 0.788362
vt 0.692359 0.832602
vt 0.271441 0.288672
vt 0.325366 0.701001
vt 0.468090 0.832602
vt 0.271441 0.288672
vt 0.101097 0.701001
vt 0.496147 0.186404
vt 0.942598 0.759702
vt 0.496147 0.391077
vt 0.790773 0.759702
vt 0.496147 0.391077
vt 0.496147 0.186404
vt 0.496147 0.288741
vt 0.496147 0.288741
vt 0.496147 0.237572
vt 0.496147 0.237572
vt 0.698935 0.878778
vt 0.318111 0.339909
vt 0.457856 0.878778
vt 0.318111 0.339909
vt 0.270710 0.245247
vt 0.270710 0.245247
vt 0.695990 0.878778
vt 0.318111 0.339909
vt 0.460801 0.878778
vt 0.318111 0.339909
vt 0.319624 0.337140
vt 0.330826 0.744681
vt 0.319624 0.337140
vt 0.095637 0.744681
vt 0.696308 0.855720
vt 0.292678 0.314325
vt 0.240190 0.240131
vt 0.240190 0.240131
vt 0.693260 0.856937
vt 0.294020 0.315675
vt 0.295532 0.312906
vt 0.328096 0.722841
vt 0.460483 0.855720
vt 0.292678 0.314325
vt 0.463531 0.856937
vt 0.294020 0.315675
vt 0.295532 0.312906
vt 0.098367 0.722841
vt 0.455229 0.901835
vt 0.343545 0.365493
vt 0.458071 0.900618
vt 0.342203 0.364143
vt 0.343715 0.361374
vt 0.092907 0.766521
vt 0.701562 0.901835
vt 0.343545 0.365493
vt 0.291057 0.237326
vt 0.291057 0.237326
vt 0.698720 0.900618
vt 0.342203 0.364143
vt 0.343715 0.361374
vt 0.333556 0.766521
vt 0.595327 0.199017
vt 0.701815 0.205624
vt 0.701815 0.205624
vt 0.833144 0.195998
vt 0.706760 0.752181
vt 0.833144 0.195998
vt 0.453131 0.752181
vt 0.047878 0.188323
vt 0.689992 0.742164
vt 0.312676 0.202850
vt 0.047878 0.188323
vt 0.466799 0.742164
vt 0.219056 0.197606
vt 0.496147 0.211988
vt 0.496147 0.211988
vt 0.219056 0.197606
vt 0.023994 0.061454
vt 0.592575 0.083137
vt 0.592575 0.083137
vt 0.275317 0.061454
vt 0.023994 0.032553
vt 0.582406 0.055198
vt 0.275317 0.032553
vt 0.582406 0.055198
vt 0.023994 0.017175
vt 0.556657 0.040332
vt 0.275317 0.017175
vt 0.556657 0.040332
vt 0.023994 0.022516
vt 0.527377 0.045495
vt 0.275317 0.022516
vt 0.527377 0.045495
vt 0.023994 0.046076
vt 0.508266 0.068271
vt 0.275317 0.046076
vt 0.508266 0.068271
vt 0.023994 0.076831
vt 0.508266 0.098003
vt 0.275317 0.076831
vt 0.508266 0.098003
vt 0.023994 0.100392
vt 0.527377 0.120779
vt 0.275317 0.100392
vt 0.527377 0.120779
vt 0.023994 0.105732
vt 0.556657 0.125941
vt 0.556657 0.125941
vt 0.275317 0.105732
vt 0.023994 0.090354
vt 0.582406 0.111075
vt 0.582406 0.111075
vt 0.275317 0.090354
vt 0.661466 0.346305
vt 0.706250 0.887642
vt 0.661466 0.346305
vt 0.453642 0.887642
vt 0.648268 0.259545
vt 0.648268 0.259545
vt 0.661466 0.346305
vt 0.701517 0.887642
vt 0.661466 0.346305
vt 0.458375 0.887642
vt 0.659544 0.344647
vt 0.070956 0.892634
vt 0.659544 0.344647
vt 0.325716 0.892634
vt 0.020337 0.070717
vt 0.885917 0.092092
vt 0.885917 0.092092
vt 0.278974 0.070717
vt 0.020337 0.038696
vt 0.874650 0.061137
vt 0.278974 0.038696
vt 0.874650 0.061137
vt 0.020337 0.021658
vt 0.846122 0.044666
vt 0.278974 0.021658
vt 0.846122 0.044666
vt 0.020337 0.027576
vt 0.813681 0.050386
vt 0.278974 0.027576
vt 0.813681 0.050386
vt 0.020337 0.053679
vt 0.022481 0.049497
vt 0.792506 0.075621
vt 0.278974 0.053679
vt 0.281118 0.049497
vt 0.792506 0.075621
vt 0.022481 0.083573
vt 0.020337 0.087755
vt 0.792506 0.108562
vt 0.281118 0.083573
vt 0.278974 0.087755
vt 0.792506 0.108562
vt 0.020337 0.113858
vt 0.813681 0.133797
vt 0.278974 0.113858
vt 0.813681 0.133797
vt 0.020337 0.119775
vt 0.846122 0.139517
vt 0.846122 0.139517
vt 0.278974 0.119775
vt 0.020337 0.102738
vt 0.874650 0.123047
vt 0.874650 0.123047
vt 0.278974 0.102738
s 0
usemtl CarTexture.001
f 68/146/1 69/148/1 60/124/1 59/121/1
f 53/103/2 54/106/2 15/25/2 16/28/2
f 11/15/3 12/18/3 57/115/3 58/118/3
f 30/54/4 16/29/4 15/26/4 29/51/4
f 28/50/5 53/105/5 16/30/5 30/55/5
f 34/63/6 23/42/6 22/39/6 33/60/6
f 32/59/7 61/129/7 23/43/7 34/64/7
f 61/127/8 62/130/8 22/40/8 23/44/8
f 110/212/9 17/31/9 21/37/9 106/207/9
f 62/132/10 31/58/10 33/62/10 22/41/10
f 32/59/11 34/64/11 43/79/11
f 43/80/12 34/65/12 33/61/12 46/84/12
f 39/70/5 28/50/5 30/55/5 41/75/5
f 72/152/13 69/149/13 51/97/13 26/48/13 37/68/13 99/197/13 6/9/13 67/145/13 109/211/13 73/153/13
f 30/56/1 29/52/1 48/88/1 47/85/1
f 100/198/14 9/13/14 13/21/14 102/200/14 40/72/14 29/53/14 15/27/14 54/107/14 27/49/14 38/69/14
f 103/203/15 41/74/15 40/71/15 102/201/15
f 101/199/5 39/70/5 41/75/5 103/202/5
f 107/209/16 32/59/16 43/79/16 104/204/16
f 31/58/17 46/83/17 33/62/17
f 50/94/18 47/86/18 48/89/18 49/91/18
f 29/53/14 40/72/14 49/92/14 48/90/14
f 40/73/19 41/76/19 50/95/19 49/93/19
f 41/77/5 30/57/5 47/87/5 50/96/5
f 1/1/20 5/8/20 51/99/20 52/100/20
f 12/19/20 11/17/20 54/108/20 53/104/20
f 133/256/20 1/1/20 52/100/20 129/250/20
f 134/258/20 12/19/20 53/104/20 130/252/20
f 133/255/5 11/16/5 58/119/5 135/259/5
f 5/8/21 1/1/21 56/112/21 55/109/21
f 134/257/14 5/7/14 55/110/14 136/261/14
f 7/10/22 3/4/22 59/122/22 60/125/22
f 19/34/22 18/32/22 62/131/22 61/128/22
f 18/32/23 19/34/23 65/139/23 66/142/23
f 3/4/24 7/10/24 64/136/24 63/133/24
f 71/151/25 68/147/25 59/123/25 36/67/25 45/82/25 4/6/25 70/150/25 108/210/25 74/154/25
f 130/251/26 53/105/26 28/50/26 131/253/26 26/48/26 51/97/26
f 52/101/1 51/98/1 69/148/1 68/146/1
f 86/173/22 19/34/22 61/128/22 83/169/22 75/155/22 94/189/22 59/122/22 3/4/22 97/193/22 79/161/22
f 92/185/22 7/10/22 60/125/22 91/183/22 76/157/22 88/177/22 62/131/22 18/32/22 89/179/22 80/163/22
f 84/171/27 31/58/27 62/132/27 88/178/27 76/158/27 91/184/27 60/126/27 44/81/27 95/191/27 77/159/27
f 97/194/28 3/5/28 63/134/28 98/195/28 81/165/28 87/175/28 65/140/28 19/35/28 86/174/28 79/162/28
f 83/170/29 61/129/29 32/59/29 85/172/29 78/160/29 96/192/29 36/67/29 59/123/29 94/190/29 75/156/29
f 89/180/30 18/33/30 66/143/30 90/181/30 82/167/30 93/187/30 64/137/30 7/11/30 92/186/30 80/164/30
f 90/182/22 66/144/22 65/141/22 87/176/22 81/166/22 98/196/22 63/135/22 64/138/22 93/188/22 82/168/22
f 20/36/31 107/209/31 104/204/31 24/45/31
f 10/14/5 101/199/5 103/202/5 14/23/5
f 14/24/15 103/203/15 102/201/15 13/22/15
f 132/254/32 27/49/32 54/107/32 129/249/32 52/102/32 25/47/32
f 105/206/33 44/81/33 60/126/33 69/149/33 72/152/33 73/153/33 109/211/33 67/145/33 8/12/33
f 31/58/34 110/212/34 106/207/34 46/83/34
f 104/205/35 43/80/35 46/84/35 106/208/35 21/38/35 24/46/35
f 111/213/36 112/216/36 114/219/36 113/217/36
f 113/217/37 114/219/37 116/223/37 115/221/37
f 115/221/38 116/223/38 118/227/38 117/225/38
f 117/225/39 118/227/39 120/231/39 119/229/39
f 119/229/40 120/231/40 122/235/40 121/233/40
f 121/233/41 122/235/41 124/239/41 123/237/41
f 123/237/42 124/239/42 126/244/42 125/241/42
f 114/220/14 112/215/14 128/247/14 126/243/14 124/240/14 122/236/14 120/232/14 118/228/14 116/224/14
f 125/241/43 126/244/43 128/248/43 127/245/43
f 127/245/44 128/248/44 112/216/44 111/213/44
f 111/214/5 113/218/5 115/222/5 117/226/5 119/230/5 121/234/5 123/238/5 125/242/5 127/246/5
f 12/20/14 134/257/14 136/261/14 57/116/14
f 1/2/5 133/255/5 135/259/5 56/113/5
f 5/8/20 134/258/20 130/252/20 51/99/20
f 11/17/20 133/256/20 129/250/20 54/108/20
f 137/263/36 138/266/36 140/269/36 139/267/36
f 139/267/37 140/269/37 142/273/37 141/271/37
f 141/271/38 142/273/38 144/277/38 143/275/38
f 143/275/39 144/277/39 146/282/39 145/279/39
f 145/280/40 146/283/40 148/288/40 147/285/40
f 147/286/41 148/289/41 150/293/41 149/291/41
f 149/291/42 150/293/42 152/298/42 151/295/42
f 140/270/14 138/265/14 154/301/14 152/297/14 150/294/14 148/290/14 146/284/14 144/278/14 142/274/14
f 151/295/43 152/298/43 154/302/43 153/299/43
f 153/299/44 154/302/44 138/266/44 137/263/44
f 137/264/5 139/268/5 141/272/5 143/276/5 145/281/5 147/287/5 149/292/5 151/296/5 153/300/5
f 135/260/20 58/120/20 57/117/20 136/262/20 55/111/20 56/114/20
f 42/78/45 35/66/45 25/47/45 52/102/45 68/147/45 71/151/45 74/154/45 108/210/45 70/150/45 2/3/45
