# Blender 4.5.3 LTS
# www.blender.org
mtllib Car.mtl
o Cube
v 1.054515 1.565466 -1.029601
v 1.137837 -0.021203 -0.815164
v 1.067385 1.578886 1.021114
v 1.137837 0.000000 1.442744
v -1.054515 1.565466 -1.029601
v -1.137837 -0.021203 -0.815164
v -1.067385 1.578886 1.021114
v -1.137837 0.000000 1.442744
v 1.100000 -0.009514 -1.548210
v -1.100000 -0.009514 -1.548210
v 1.054515 0.934534 -1.570399
v -1.054515 0.934534 -1.570399
v 1.100000 -0.000000 -2.600000
v -1.100000 -0.000000 -2.600000
v 1.100000 0.600000 -2.600000
v -1.100000 0.600000 -2.600000
v -1.100000 0.000000 2.162744
v -0.972663 0.821114 1.778886
v 0.972663 0.821114 1.778886
v 1.100000 0.000000 2.162744
v -0.968000 0.000000 3.500000
v -0.784080 0.360000 3.500000
v 0.784080 0.360000 3.500000
v 0.968000 0.000000 3.500000
v 1.137837 0.462224 -0.923897
v -1.137837 0.462224 -0.923897
v 1.100000 0.480173 -1.443983
v -1.100000 0.480173 -1.443983
v 1.100000 0.300000 -2.700000
v -1.100000 0.300000 -2.700000
v -1.100000 0.261231 2.130666
v 1.100000 0.261231 2.130666
v -0.871200 0.130000 3.600000
v 0.871200 0.130000 3.600000
v 1.137837 0.334798 -0.826307
v 1.137837 0.277282 1.489672
v -1.137837 0.334798 -0.826307
v 1.100000 0.318938 -1.564201
v -1.100000 0.318938 -1.564201
v 1.100000 0.150000 -2.700000
v -1.100000 0.150000 -2.700000
v 1.137837 0.098602 -0.779912
v 0.968000 0.030000 3.550000
v -1.137837 0.277282 1.489672
v 1.137837 0.128567 1.442744
v -0.968000 0.030000 3.550000
v -1.100000 0.300000 -2.800000
v 1.100000 0.300000 -2.800000
v 1.100000 0.150000 -2.800000
v -1.100000 0.150000 -2.800000
v -1.091145 1.600000 -1.000000
v 1.091145 1.600000 -1.000000
v -1.100000 0.900000 -1.600000
v 1.100000 0.900000 -1.600000
v -1.054515 1.552508 -1.014483
v 1.054515 1.552508 -1.014483
v -1.054515 0.921577 -1.555281
v 1.054515 0.921577 -1.555281
v 1.091145 1.600000 1.000000
v -1.091145 1.600000 1.000000
v 1.000000 0.800000 1.800000
v -1.000000 0.800000 1.800000
v 1.083250 1.557238 1.009222
v -1.051520 1.557238 1.009222
v 0.988529 0.799466 1.766994
v -0.956798 0.799466 1.766994
v -1.137837 0.000000 0.000000
v 1.137837 1.600000 -0.000000
v -1.137837 1.600000 -0.000000
v 1.137837 0.000000 0.000000
v 1.137837 0.800000 -0.000000
v -1.137837 0.800000 -0.000000
v -1.137837 0.400000 -0.000000
v 1.137837 0.400000 -0.000000
v 1.045573 1.200000 1.400000
v -1.045573 1.200000 1.400000
v -1.068919 0.460000 1.772744
v 1.068919 0.460000 1.772744
v 1.020024 1.200000 1.400000
v -1.020024 1.200000 1.400000
v 1.035889 1.178352 1.388108
v -1.004159 1.178352 1.388108
v 1.022786 1.000000 1.600000
v -1.034459 0.420000 2.012744
v 1.034459 0.420000 2.012744
v 0.996344 1.010557 1.589443
v 1.012209 0.988909 1.577551
v -1.022786 1.000000 1.600000
v -0.996344 1.010557 1.589443
v -0.980478 0.988909 1.577551
v -1.068359 1.400000 1.200000
v -1.043705 1.389443 1.210557
v -1.027839 1.367795 1.198665
v 1.068359 1.400000 1.200000
v -1.103378 0.398078 1.612744
v 1.103378 0.398078 1.612744
v 1.043705 1.389443 1.210557
v 1.059570 1.367795 1.198665
v -1.137837 0.098602 -0.779912
v 1.100000 0.150247 -1.617289
v -1.100000 0.150247 -1.617289
v 1.100000 0.075000 -2.650000
v -1.100000 0.075000 -2.650000
v 0.968000 0.015000 3.525000
v -1.137837 0.128567 1.442744
v -0.968000 0.015000 3.525000
v 1.100000 0.087573 2.178933
v 1.137837 0.200000 -0.000000
v -1.137837 0.200000 -0.000000
v -1.100000 0.087573 2.178933
v -1.090000 0.070000 1.422744
v 1.090000 0.070000 1.422744
v -1.090000 -0.180687 1.513987
v 1.090000 -0.180687 1.513987
v -1.090000 -0.314075 1.745021
v 1.090000 -0.314075 1.745021
v -1.090000 -0.267750 2.007744
v 1.090000 -0.267750 2.007744
v -1.090000 -0.063388 2.179224
v 1.090000 -0.063388 2.179224
v -1.090000 0.203388 2.179224
v 1.090000 0.203388 2.179224
v -1.090000 0.407750 2.007744
v 1.090000 0.407750 2.007744
v -1.090000 0.454075 1.745021
v 1.090000 0.454075 1.745021
v -1.090000 0.320687 1.513987
v 1.090000 0.320687 1.513987
v 1.095572 1.250000 -1.300000
v -1.095572 1.250000 -1.300000
v -1.118919 0.571768 -1.196217
v 1.118919 0.571768 -1.196217
v 1.054515 1.250000 -1.300000
v -1.054515 1.250000 -1.300000
v 1.054515 1.237042 -1.284882
v -1.054515 1.237042 -1.284882
v -1.121718 0.150350 -1.622073
v 1.121718 0.150350 -1.622073
v -1.121718 -0.127400 -1.520980
v 1.121718 -0.127400 -1.520980
v -1.121718 -0.275188 -1.265004
v 1.121718 -0.275188 -1.265004
v -1.121718 -0.223862 -0.973919
v 1.121718 -0.223862 -0.973919
v -1.121718 0.002562 -0.783927
v 1.121718 0.002562 -0.783927
v -1.121718 0.298138 -0.783927
v 1.121718 0.298137 -0.783927
v -1.121718 0.524561 -0.973919
v 1.121718 0.524561 -0.973919
v -1.121718 0.575888 -1.265004
v 1.121718 0.575887 -1.265004
v -1.121718 0.428100 -1.520980
v 1.121718 0.428100 -1.520980
v -0.808565 0.150350 -1.622073
v 0.808565 0.150350 -1.622073
v -0.808565 -0.127400 -1.520980
v 0.808565 -0.127400 -1.520980
v -0.808565 -0.275188 -1.265004
v 0.808565 -0.275188 -1.265004
v -0.808565 -0.223862 -0.973919
v 0.808565 -0.223862 -0.973919
v -0.808565 0.002562 -0.783927
v 0.808565 0.002562 -0.783927
v -0.808565 0.298138 -0.783927
v 0.808565 0.298137 -0.783927
v -0.808565 0.524561 -0.973919
v 0.808565 0.524561 -0.973919
v -0.808565 0.575888 -1.265004
v 0.808565 0.575887 -1.265004
v -0.808565 0.428100 -1.520980
v 0.808565 0.428100 -1.520980
v -0.785701 0.070000 1.422744
v 0.785701 0.070000 1.422744
v -0.785701 -0.180687 1.513987
v 0.785701 -0.180687 1.513987
v -0.785701 -0.314075 1.745021
v 0.785701 -0.314075 1.745021
v -0.785701 -0.267750 2.007744
v 0.785701 -0.267750 2.007744
v -0.785701 -0.063388 2.179224
v 0.785701 -0.063388 2.179224
v -0.785701 0.203388 2.179224
v 0.785701 0.203388 2.179224
v -0.785701 0.407750 2.007744
v 0.785701 0.407750 2.007744
v -0.785701 0.454075 1.745021
v 0.785701 0.454075 1.745021
v -0.785701 0.320687 1.513987
v 0.785701 0.320687 1.513987
vn -0.0000 1.0000 -0.0000
vn -0.0000 0.9578 -0.2873
vn -0.0000 0.7593 0.6508
vn -0.0000 0.3162 -0.9487
vn -1.0000 -0.0000 -0.0000
vn -0.0000 0.3987 0.9171
vn 0.9244 0.3311 0.1894
vn -0.0000 0.9681 0.2506
vn -0.9945 -0.0389 0.0968
vn -0.9244 0.3311 0.1894
vn 0.7496 0.6387 0.1738
vn -0.0000 -0.4472 0.8944
vn -0.9997 0.0145 -0.0179
vn 1.0000 -0.0000 -0.0000
vn -0.0000 -0.5547 -0.8320
vn -0.0000 -0.5547 -0.8321
vn 0.9953 0.0119 0.0963
vn -0.7496 0.6387 0.1738
vn -0.0000 -0.0000 -1.0000
vn -0.0000 -1.0000 -0.0000
vn -0.0000 0.6508 -0.7593
vn -0.0000 -0.7593 -0.6508
vn -0.0000 0.7071 0.7071
vn -0.0000 0.4815 -0.8765
vn -0.0000 -0.4815 0.8765
vn 0.9997 0.0170 0.0151
vn -0.9989 0.0258 -0.0385
vn -0.9748 0.1208 0.1878
vn -0.8191 -0.3512 -0.4536
vn 0.9748 0.1208 0.1878
vn 0.8387 0.4339 0.3291
vn 0.9945 -0.0389 0.0968
vn 0.9989 0.0258 -0.0385
vn -0.9997 0.0170 0.0151
vn -0.9953 0.0119 0.0963
vn -0.0000 -0.8575 0.5145
vn -0.6376 -0.0000 -0.7704
vn -0.0000 -0.3420 -0.9397
vn -0.6376 -0.4952 -0.5901
vn -0.0000 -0.8660 -0.5000
vn -0.6376 -0.7587 -0.1338
vn -0.0000 -0.9848 0.1736
vn -0.6376 -0.6672 0.3852
vn -0.0000 -0.6428 0.7660
vn -0.6376 -0.2635 0.7239
vn -0.0000 -0.0000 1.0000
vn -0.6376 0.2635 0.7239
vn -0.0000 0.6428 0.7660
vn -0.6376 0.6672 0.3852
vn -0.0000 0.9848 0.1736
vn -0.6376 0.7587 -0.1338
vn -0.0000 0.8660 -0.5000
vn -0.6376 0.4952 -0.5901
vn -0.0000 0.3420 -0.9397
vn 0.9997 0.0145 -0.0179
vn 0.6376 0.4952 -0.5901
vn 0.6376 -0.0000 -0.7704
vn 0.6376 0.7587 -0.1338
vn -0.0000 0.9848 0.1737
vn 0.6376 0.6671 0.3852
vn 0.6376 0.2635 0.7239
vn 0.6376 -0.2635 0.7239
vn 0.6376 -0.6672 0.3852
vn 0.6376 -0.7587 -0.1338
vn 0.6376 -0.4952 -0.5901
vn 0.6376 0.6672 0.3852
vt 0.942598 0.759702
vt 0.790773 0.759702
vt 0.793889 0.692985
vt 0.939483 0.692985
vt 0.793298 0.866448
vt 0.940074 0.866448
vt 0.940074 0.933164
vt 0.793298 0.933164
vt 0.700318 0.851645
vt 0.457176 0.851645
vt 0.457176 0.850151
vt 0.700318 0.850151
vt 0.453131 0.778120
vt 0.453131 0.812706
vt 0.706760 0.812706
vt 0.706760 0.778120
vt 0.679776 0.247828
vt 0.699617 0.301533
vt 0.826785 0.263157
vt 0.839502 0.224780
vt 0.678833 0.638234
vt 0.668789 0.664750
vt 0.488002 0.664750
vt 0.477958 0.638234
vt 0.225194 0.219821
vt 0.267244 0.288741
vt 0.051058 0.232455
vt 0.038341 0.203034
vt 0.933402 0.639612
vt 0.799969 0.639612
vt 0.814375 0.526194
vt 0.918997 0.526194
vt 0.219056 0.197606
vt 0.221114 0.186404
vt 0.051058 0.186404
vt 0.047878 0.188323
vt 0.044699 0.190242
vt 0.689992 0.743893
vt 0.678833 0.755421
vt 0.477958 0.755421
vt 0.466799 0.743893
vt 0.695064 0.227203
vt 0.839502 0.205592
vt 0.496147 0.288741
vt 0.496147 0.391077
vt 0.623316 0.391077
vt 0.613638 0.245532
vt 0.601228 0.229232
vt 0.595327 0.199017
vt 0.599810 0.183692
vt 0.496147 0.186404
vt 0.496147 0.211988
vt 0.496147 0.237572
vt 0.793298 0.939836
vt 0.940074 0.939836
vt 0.940074 0.946508
vt 0.793298 0.946508
vt 0.701815 0.205624
vt 0.693031 0.185187
vt 0.826785 0.186404
vt 0.833144 0.195998
vt 0.453131 0.752181
vt 0.453131 0.760828
vt 0.706760 0.760828
vt 0.706760 0.752181
vt 0.812979 0.942413
vt 0.812979 0.959706
vt 0.924213 0.959706
vt 0.924213 0.942413
vt 0.852219 0.205592
vt 0.852219 0.224780
vt 0.791825 0.941829
vt 0.940579 0.940055
vt 0.942129 0.948455
vt 0.791378 0.949003
vt 0.838284 0.205909
vt 0.838284 0.224974
vt 0.850994 0.224974
vt 0.850994 0.205909
vt 0.701517 0.924011
vt 0.458375 0.924011
vt 0.454152 0.927992
vt 0.705739 0.927992
vt 0.458375 0.851273
vt 0.701517 0.851273
vt 0.706760 0.847292
vt 0.453131 0.847292
vt 0.701517 0.887642
vt 0.706250 0.887642
vt 0.458375 0.887642
vt 0.453642 0.887642
vt 0.661466 0.346305
vt 0.695853 0.305950
vt 0.693930 0.304293
vt 0.659544 0.344647
vt 0.701517 0.922517
vt 0.458375 0.922517
vt 0.627080 0.386660
vt 0.625157 0.385002
vt 0.455341 0.922458
vt 0.701450 0.922458
vt 0.704189 0.924892
vt 0.452602 0.924892
vt 0.690530 0.835097
vt 0.466261 0.835097
vt 0.463110 0.832663
vt 0.693682 0.832663
vt 0.692359 0.832602
vt 0.468090 0.832602
vt 0.457170 0.919962
vt 0.703279 0.919962
vt 0.368979 0.391077
vt 0.306708 0.221874
vt 0.312676 0.202850
vt 0.312676 0.186404
vt 0.648268 0.259545
vt 0.939483 0.826418
vt 0.793889 0.826418
vt 0.693260 0.856937
vt 0.696308 0.855720
vt 0.698935 0.878778
vt 0.701562 0.901835
vt 0.698720 0.900618
vt 0.695990 0.878778
vt 0.458071 0.900618
vt 0.455229 0.901835
vt 0.457856 0.878778
vt 0.460483 0.855720
vt 0.463531 0.856937
vt 0.460801 0.878778
vt 0.240190 0.240131
vt 0.292678 0.314325
vt 0.318111 0.339909
vt 0.343545 0.365493
vt 0.291057 0.237326
vt 0.270710 0.245247
vt 0.342203 0.364143
vt 0.366294 0.388376
vt 0.367806 0.385607
vt 0.343715 0.361374
vt 0.319624 0.337140
vt 0.295532 0.312906
vt 0.271441 0.288672
vt 0.269929 0.291442
vt 0.294020 0.315675
vt 0.098367 0.722841
vt 0.101097 0.701001
vt 0.325366 0.701001
vt 0.328096 0.722841
vt 0.330826 0.744681
vt 0.333556 0.766521
vt 0.336286 0.788362
vt 0.090176 0.788362
vt 0.092907 0.766521
vt 0.095637 0.744681
vt 0.453131 0.743535
vt 0.706760 0.743535
vt 0.689992 0.742164
vt 0.466799 0.742164
vt 0.466799 0.740434
vt 0.689992 0.740434
vt 0.191543 0.061454
vt 0.275317 0.061454
vt 0.275317 0.032553
vt 0.191543 0.032553
vt 0.275317 0.017175
vt 0.191543 0.017175
vt 0.275317 0.022516
vt 0.191543 0.022516
vt 0.275317 0.046076
vt 0.191543 0.046076
vt 0.275317 0.076831
vt 0.191543 0.076831
vt 0.275317 0.100392
vt 0.191543 0.100392
vt 0.275317 0.105732
vt 0.191543 0.105732
vt 0.582406 0.055198
vt 0.592575 0.083137
vt 0.582406 0.111075
vt 0.556657 0.125941
vt 0.527377 0.120779
vt 0.508266 0.098003
vt 0.508266 0.068271
vt 0.527377 0.045495
vt 0.556657 0.040332
vt 0.275317 0.090354
vt 0.191543 0.090354
vt 0.192762 0.070717
vt 0.278974 0.070717
vt 0.278974 0.038696
vt 0.192762 0.038696
vt 0.278974 0.021658
vt 0.192762 0.021658
vt 0.278974 0.027576
vt 0.192762 0.027576
vt 0.278974 0.053679
vt 0.192762 0.053679
vt 0.194906 0.049497
vt 0.281118 0.049497
vt 0.281118 0.083573
vt 0.194906 0.083573
vt 0.192762 0.087755
vt 0.278974 0.087755
vt 0.278974 0.113858
vt 0.192762 0.113858
vt 0.278974 0.119775
vt 0.192762 0.119775
vt 0.874650 0.061137
vt 0.885917 0.092092
vt 0.874650 0.123047
vt 0.846122 0.139517
vt 0.813681 0.133797
vt 0.792506 0.108562
vt 0.792506 0.075621
vt 0.813681 0.050386
vt 0.846122 0.044666
vt 0.278974 0.102738
vt 0.192762 0.102738
vt 0.070956 0.892634
vt 0.070956 0.819322
vt 0.325716 0.819322
vt 0.325716 0.892634
vt 0.325716 0.933238
vt 0.070956 0.933238
vt 0.020337 0.102738
vt 0.106549 0.102738
vt 0.106549 0.070717
vt 0.020337 0.070717
vt 0.020337 0.119775
vt 0.106549 0.119775
vt 0.020337 0.113858
vt 0.106549 0.113858
vt 0.020337 0.087755
vt 0.106549 0.087755
vt 0.022481 0.049497
vt 0.108693 0.049497
vt 0.108693 0.083573
vt 0.022481 0.083573
vt 0.020337 0.027576
vt 0.106549 0.027576
vt 0.106549 0.053679
vt 0.020337 0.053679
vt 0.020337 0.021658
vt 0.106549 0.021658
vt 0.020337 0.038696
vt 0.106549 0.038696
vt 0.023994 0.090354
vt 0.107768 0.090354
vt 0.107768 0.061454
vt 0.023994 0.061454
vt 0.023994 0.105732
vt 0.107768 0.105732
vt 0.023994 0.100392
vt 0.107768 0.100392
vt 0.023994 0.076831
vt 0.107768 0.076831
vt 0.023994 0.046076
vt 0.107768 0.046076
vt 0.023994 0.022516
vt 0.107768 0.022516
vt 0.023994 0.017175
vt 0.107768 0.017175
vt 0.023994 0.032553
vt 0.107768 0.032553
s 1
usemtl CarTexture.001
f 68/1/1 69/2/1 60/3/1 59/4/1
f 53/5/2 54/6/2 15/7/2 16/8/2
f 11/9/3 12/10/3 57/11/3 58/12/3
f 30/13/4 16/14/4 15/15/4 29/16/4
f 28/17/5 53/18/5 16/19/5 30/20/5
f 34/21/6 23/22/6 22/23/6 33/24/6
f 32/25/7 61/26/7 23/27/7 34/28/7
f 61/29/8 62/30/8 22/31/8 23/32/8
f 110/33/9 17/34/9 21/35/9 106/36/9
f 62/26/10 31/25/10 33/28/10 22/27/10
f 32/25/11 34/28/11 43/37/11
f 43/38/12 34/39/12 33/40/12 46/41/12
f 39/42/5 28/17/5 30/20/5 41/43/5
f 72/44/13 69/45/13 51/46/13 26/47/13 37/48/13 99/49/13 6/50/13 67/51/13 109/52/13 73/53/13
f 30/54/1 29/55/1 48/56/1 47/57/1
f 100/58/14 9/59/14 13/60/14 102/61/14 40/43/14 29/20/14 15/19/14 54/18/14 27/17/14 38/42/14
f 103/62/15 41/63/16 40/64/16 102/65/15
f 101/58/5 39/42/5 41/43/5 103/61/5
f 107/33/17 32/25/17 43/37/17 104/36/17
f 31/25/18 46/37/18 33/28/18
f 50/66/19 47/67/19 48/68/19 49/69/19
f 29/20/14 40/43/14 49/70/14 48/71/14
f 40/72/20 41/73/20 50/74/20 49/75/20
f 41/76/5 30/77/5 47/78/5 50/79/5
f 1/80/21 5/81/21 51/82/21 52/83/21
f 12/84/21 11/85/21 54/86/21 53/87/21
f 133/88/21 1/80/21 52/83/21 129/89/21
f 134/90/21 12/84/21 53/87/21 130/91/21
f 133/92/5 11/93/5 58/94/5 135/95/5
f 5/81/22 1/80/22 56/96/22 55/97/22
f 134/92/14 5/98/14 55/99/14 136/95/14
f 7/100/23 3/101/23 59/102/23 60/103/23
f 19/104/23 18/105/23 62/106/23 61/107/23
f 18/105/24 19/104/24 65/108/24 66/109/24
f 3/101/25 7/100/25 64/110/25 63/111/25
f 71/44/26 68/45/26 59/112/26 36/113/26 45/114/26 4/115/26 70/51/26 108/52/26 74/53/26
f 130/92/27 53/18/27 28/17/27 131/116/27 26/47/27 51/46/27
f 52/117/1 51/118/1 69/2/1 68/1/1
f 86/119/23 19/104/23 61/107/23 83/120/23 75/121/23 94/122/23 59/102/23 3/101/23 97/123/23 79/124/23
f 92/125/23 7/100/23 60/103/23 91/126/23 76/127/23 88/128/23 62/106/23 18/105/23 89/129/23 80/130/23
f 84/131/28 31/25/28 62/26/28 88/132/28 76/133/28 91/134/28 60/112/28 44/113/28 95/135/28 77/136/28
f 97/137/29 3/138/29 63/139/29 98/140/29 81/141/29 87/142/29 65/143/29 19/144/29 86/145/29 79/133/29
f 83/132/30 61/26/30 32/25/30 85/131/30 78/136/30 96/135/30 36/113/30 59/112/30 94/134/30 75/133/30
f 89/145/31 18/144/31 66/143/31 90/142/31 82/141/31 93/140/31 64/139/31 7/138/31 92/137/31 80/133/31
f 90/146/23 66/147/23 65/148/23 87/149/23 81/150/23 98/151/23 63/152/23 64/153/23 93/154/23 82/155/23
f 20/34/32 107/33/32 104/36/32 24/35/32
f 10/59/5 101/58/5 103/61/5 14/60/5
f 14/156/15 103/62/15 102/65/15 13/157/15
f 132/116/33 27/17/33 54/18/33 129/92/33 52/46/33 25/47/33
f 105/114/34 44/113/34 60/112/34 69/45/34 72/44/34 73/53/34 109/52/34 67/51/34 8/115/34
f 31/25/35 110/33/35 106/36/35 46/37/35
f 104/158/36 43/38/36 46/41/36 106/159/36 21/160/36 24/161/36
f 174/162/37 112/163/38 114/164/38 176/165/39
f 176/165/39 114/164/40 116/166/40 178/167/41
f 178/167/41 116/166/42 118/168/42 180/169/43
f 180/169/43 118/168/44 120/170/44 182/171/45
f 182/171/45 120/170/46 122/172/46 184/173/47
f 184/173/47 122/172/48 124/174/48 186/175/49
f 186/175/49 124/174/50 126/176/50 188/177/51
f 114/178/14 112/179/14 128/180/14 126/181/14 124/182/14 122/183/14 120/184/14 118/185/14 116/186/14
f 188/177/51 126/176/52 128/187/52 190/188/53
f 190/188/53 128/187/54 112/163/54 174/162/37
f 111/179/5 113/178/5 115/186/5 117/185/5 119/184/5 121/183/5 123/182/5 125/181/5 127/180/5
f 12/93/14 134/92/14 136/95/14 57/94/14
f 1/98/5 133/92/5 135/95/5 56/99/5
f 5/81/21 134/90/21 130/91/21 51/82/21
f 11/85/21 133/88/21 129/89/21 54/86/21
f 156/189/37 138/190/38 140/191/38 158/192/39
f 158/192/39 140/191/40 142/193/40 160/194/41
f 160/194/41 142/193/42 144/195/42 162/196/43
f 162/196/43 144/195/44 146/197/44 164/198/45
f 164/199/45 146/200/46 148/201/46 166/202/47
f 166/203/47 148/204/48 150/205/48 168/206/49
f 168/206/49 150/205/50 152/207/50 170/208/51
f 140/209/14 138/210/14 154/211/14 152/212/14 150/213/14 148/214/14 146/215/14 144/216/14 142/217/14
f 170/208/51 152/207/52 154/218/52 172/219/53
f 172/219/53 154/218/54 138/190/54 156/189/37
f 137/210/5 139/209/5 141/217/5 143/216/5 145/215/5 147/214/5 149/213/5 151/212/5 153/211/5
f 135/220/21 58/221/21 57/222/21 136/223/21 55/224/21 56/225/21
f 42/49/55 35/48/55 25/47/55 52/46/55 68/45/55 71/44/55 74/53/55 108/52/55 70/51/55 2/50/55
f 153/226/54 171/227/56 155/228/57 137/229/54
f 151/230/52 169/231/58 171/227/56 153/226/52
f 149/232/59 167/233/60 169/231/58 151/230/59
f 147/234/48 165/235/61 167/233/60 149/232/48
f 145/236/46 163/237/62 165/238/61 147/239/46
f 143/240/44 161/241/63 163/242/62 145/243/44
f 141/244/42 159/245/64 161/241/63 143/240/42
f 139/246/40 157/247/65 159/245/64 141/244/40
f 137/229/38 155/228/57 157/247/65 139/246/38
f 127/248/54 189/249/56 173/250/57 111/251/54
f 125/252/52 187/253/58 189/249/56 127/248/52
f 123/254/50 185/255/66 187/253/58 125/252/50
f 121/256/48 183/257/61 185/255/66 123/254/48
f 119/258/46 181/259/62 183/257/61 121/256/46
f 117/260/44 179/261/63 181/259/62 119/258/44
f 115/262/42 177/263/64 179/261/63 117/260/42
f 113/264/40 175/265/65 177/263/64 115/262/40
f 111/251/38 173/250/57 175/265/65 113/264/38
f 171/227/56 169/231/58 167/233/60 165/235/61 163/237/62 161/241/63 159/245/64 157/247/65 155/228/57
f 172/219/53 156/189/37 158/192/39 160/194/41 162/196/43 164/199/45 166/203/47 168/206/49 170/208/51
f 189/249/56 187/253/58 185/255/66 183/257/61 181/259/62 179/261/63 177/263/64 175/265/65 173/250/57
f 190/188/53 174/162/37 176/165/39 178/167/41 180/169/43 182/171/45 184/173/47 186/175/49 188/177/51
